<svg width="24" height="24" viewBox="0 0 24 24" fill="none" xmlns="http://www.w3.org/2000/svg">
<path d="M20.8608 5.70989H15.2884V7.27247H20.8828L20.8608 5.70989ZM19.6848 16.4596C19.2621 16.742 18.7628 16.8853 18.256 16.8697C17.9204 16.9049 17.5813 16.87 17.2598 16.767C16.9383 16.664 16.6413 16.4952 16.3875 16.2712C15.9182 15.7347 15.6738 15.0354 15.706 14.3207H22.9821C23.0346 13.5766 22.9715 12.8288 22.7953 12.1043C22.6248 11.415 22.3264 10.7645 21.916 10.1871C21.5028 9.627 20.9693 9.16855 20.3552 8.84615C19.6721 8.50652 18.9186 8.33559 18.157 8.34745C17.4408 8.34216 16.7307 8.48158 16.0687 8.75749C15.4626 9.01514 14.9133 9.39187 14.4531 9.86571C13.9941 10.349 13.6386 10.9224 13.4089 11.5502C13.1624 12.2279 13.0395 12.945 13.0462 13.6669C13.0349 14.399 13.154 15.1272 13.3979 15.8168C13.6051 16.4414 13.9339 17.0178 14.3651 17.5124C14.8113 17.998 15.3596 18.3767 15.9698 18.6206C16.6503 18.882 17.374 19.0099 18.1021 18.9974C19.1236 19.0295 20.1322 18.7599 21.0037 18.2217C21.884 17.591 22.5178 16.6697 22.7953 15.6174H20.3662C20.2362 15.9655 19.9969 16.2612 19.6848 16.4596ZM15.9149 11.8937C16.0004 11.6174 16.1424 11.3623 16.3317 11.1447C16.521 10.9271 16.7534 10.7519 17.014 10.6304C17.359 10.4738 17.7348 10.398 18.1131 10.4087C18.3863 10.3852 18.6614 10.4215 18.9194 10.5153C19.1774 10.609 19.4123 10.7579 19.6079 10.9518C19.9813 11.4127 20.221 11.9689 20.3003 12.5587H15.739C15.7568 12.3335 15.7973 12.1107 15.8599 11.8937H15.9149ZM10.1006 11.3618C10.66 11.1269 11.1461 10.744 11.5074 10.2536C11.8396 9.73273 12.0046 9.12135 11.9801 8.5026C12.0016 7.93833 11.8925 7.37677 11.6613 6.86243C11.4671 6.41684 11.1554 6.03351 10.7601 5.75421C10.3409 5.46383 9.86495 5.26733 9.36419 5.17794C8.77158 5.05262 8.16712 4.99316 7.56166 5.00063H1V18.942H7.70454C8.3164 18.9425 8.92582 18.8643 9.51807 18.7093C10.0794 18.5629 10.6113 18.3191 11.0898 17.989C11.5533 17.665 11.9308 17.2312 12.1889 16.7256C12.4746 16.1602 12.6144 15.5313 12.5956 14.897C12.6164 14.111 12.3977 13.3374 11.9691 12.6806C11.5081 12.02 10.8244 11.5512 10.0456 11.3618H10.1006ZM4.04452 7.3833H6.89121C7.15273 7.38297 7.41381 7.40522 7.67157 7.44979C7.90892 7.48526 8.13686 7.56815 8.34202 7.6936C8.54025 7.80665 8.70086 7.97631 8.80365 8.18121C8.93095 8.42693 8.99161 8.70218 8.97951 8.97913C8.99998 9.21766 8.96381 9.45768 8.87398 9.67931C8.78414 9.90094 8.64324 10.0978 8.46293 10.2536C8.06958 10.5262 7.5989 10.6624 7.12202 10.6415H4.04452V7.3833ZM9.36419 15.6284C9.25127 15.8543 9.08051 16.0456 8.8696 16.1826C8.65011 16.3202 8.40827 16.4177 8.15518 16.4707C7.87387 16.5342 7.58611 16.5639 7.29787 16.5593H4.00056V12.736H7.29787C7.86371 12.711 8.4225 12.8703 8.89158 13.1904C9.1035 13.3821 9.26766 13.6215 9.37077 13.8891C9.47388 14.1567 9.51305 14.4451 9.48509 14.7308C9.51481 15.0354 9.47341 15.3428 9.36419 15.6284V15.6284Z" fill="#1E1E2F"/>
</svg>
