<svg width="24" height="24" viewBox="0 0 24 24" fill="none" xmlns="http://www.w3.org/2000/svg">
<path fill-rule="evenodd" clip-rule="evenodd" d="M5.33316 2.02236C7.30655 0.703787 9.62663 0 12 0C13.5759 0 15.1363 0.310389 16.5922 0.913445C18.0481 1.5165 19.371 2.40041 20.4853 3.51472C21.5996 4.62902 22.4835 5.95189 23.0866 7.4078C23.6896 8.8637 24 10.4241 24 12C24 14.3734 23.2962 16.6934 21.9776 18.6668C20.6591 20.6402 18.7849 22.1783 16.5922 23.0865C14.3995 23.9948 11.9867 24.2324 9.65892 23.7694C7.33115 23.3064 5.19295 22.1635 3.51472 20.4853C1.83649 18.807 0.693604 16.6688 0.230582 14.3411C-0.232441 12.0133 0.00519943 9.60051 0.913451 7.4078C1.8217 5.21508 3.35977 3.34094 5.33316 2.02236ZM9.6 6C9.28174 6 8.97652 6.12643 8.75147 6.35147C8.52643 6.57652 8.4 6.88174 8.4 7.2V16.8C8.4 17.1183 8.52643 17.4235 8.75147 17.6485C8.97652 17.8736 9.28174 18 9.6 18C9.91826 18 10.2235 17.8736 10.4485 17.6485C10.6736 17.4235 10.8 17.1183 10.8 16.8V7.2C10.8 6.88174 10.6736 6.57652 10.4485 6.35147C10.2235 6.12643 9.91826 6 9.6 6ZM14.4 6C14.0817 6 13.7765 6.12643 13.5515 6.35147C13.3264 6.57652 13.2 6.88174 13.2 7.2V16.8C13.2 17.1183 13.3264 17.4235 13.5515 17.6485C13.7765 17.8736 14.0817 18 14.4 18C14.7183 18 15.0235 17.8736 15.2485 17.6485C15.4736 17.4235 15.6 17.1183 15.6 16.8V7.2C15.6 6.88174 15.4736 6.57652 15.2485 6.35147C15.0235 6.12643 14.7183 6 14.4 6Z" fill="white"/>
</svg>
