<svg width="24" height="24" viewBox="0 0 24 24" fill="none" xmlns="http://www.w3.org/2000/svg">
<path fill-rule="evenodd" clip-rule="evenodd" d="M5.33316 2.02236C7.30655 0.703787 9.62663 0 12 0C13.5759 0 15.1363 0.310389 16.5922 0.913445C18.0481 1.5165 19.371 2.40041 20.4853 3.51472C21.5996 4.62902 22.4835 5.95189 23.0865 7.40779C23.6896 8.8637 24 10.4241 24 12C24 14.3734 23.2962 16.6934 21.9776 18.6668C20.659 20.6402 18.7849 22.1783 16.5922 23.0865C14.3995 23.9948 11.9867 24.2324 9.65892 23.7694C7.33115 23.3064 5.19295 22.1635 3.51472 20.4853C1.83649 18.807 0.693604 16.6688 0.230582 14.3411C-0.23244 12.0133 0.00519939 9.60051 0.913451 7.40779C1.8217 5.21508 3.35977 3.34094 5.33316 2.02236ZM10.8 6.45631L16.8 9.92431C17.1637 10.1353 17.4656 10.4381 17.6754 10.8024C17.8853 11.1668 17.9957 11.5799 17.9957 12.0003C17.9957 12.4208 17.8853 12.8338 17.6754 13.1982C17.4656 13.5625 17.1637 13.8653 16.8 14.0763L10.8 17.5443C10.4352 17.7549 10.0213 17.8658 9.6 17.8658C9.17871 17.8658 8.76485 17.7549 8.4 17.5443C8.03552 17.3339 7.73278 17.0313 7.52216 16.6669C7.31153 16.3025 7.20043 15.8892 7.2 15.4683V8.53231C7.20043 8.11123 7.31164 7.69767 7.52246 7.33317C7.73328 6.96867 8.03629 6.66604 8.40107 6.45569C8.76584 6.24534 9.17954 6.13466 9.60062 6.13477C10.0217 6.13488 10.4353 6.24577 10.8 6.45631ZM15.6 12.0003L9.6 15.4683V8.53231L15.6 12.0003Z" fill="white"/>
</svg>
