<svg width="24" height="24" viewBox="0 0 24 24" fill="none" xmlns="http://www.w3.org/2000/svg">
<path d="M22 10.9997C22.0028 10.2948 21.8193 9.60178 21.4681 8.99067C21.1169 8.37956 20.6104 7.87211 20 7.51969C20.015 7.34668 20.015 7.1727 20 6.99969C20 6.20404 19.6839 5.44098 19.1213 4.87837C18.5587 4.31576 17.7956 3.99969 17 3.99969H16.82C16.6535 3.538 16.3762 3.12422 16.0125 2.79464C15.6488 2.46505 15.2099 2.22972 14.7341 2.10929C14.2583 1.98886 13.7602 1.98701 13.2835 2.10389C12.8068 2.22077 12.3661 2.45282 12 2.77969C11.6339 2.45282 11.1931 2.22077 10.7165 2.10389C10.2398 1.98701 9.7417 1.98886 9.2659 2.10929C8.7901 2.22972 8.35112 2.46505 7.98744 2.79464C7.62377 3.12422 7.34651 3.538 7.17998 3.99969H6.99998C6.20433 3.99969 5.44127 4.31576 4.87866 4.87837C4.31605 5.44098 3.99998 6.20404 3.99998 6.99969C3.98493 7.1727 3.98493 7.34668 3.99998 7.51969C3.43244 7.84048 2.95192 8.29513 2.60022 8.84406C2.24853 9.39299 2.03634 10.0196 1.98212 10.6692C1.9279 11.3189 2.03329 11.972 2.28912 12.5716C2.54496 13.1712 2.94347 13.6993 3.44998 14.1097C3.12226 14.721 2.9591 15.4069 2.97653 16.1003C2.99396 16.7936 3.19138 17.4706 3.54941 18.0646C3.90744 18.6586 4.41377 19.1493 5.01871 19.4886C5.62366 19.8278 6.30642 20.004 6.99998 19.9997H7.17998C7.34651 20.4614 7.62377 20.8752 7.98744 21.2047C8.35112 21.5343 8.7901 21.7697 9.2659 21.8901C9.7417 22.0105 10.2398 22.0124 10.7165 21.8955C11.1931 21.7786 11.6339 21.5466 12 21.2197C12.3661 21.5466 12.8068 21.7786 13.2835 21.8955C13.7602 22.0124 14.2583 22.0105 14.7341 21.8901C15.2099 21.7697 15.6488 21.5343 16.0125 21.2047C16.3762 20.8752 16.6535 20.4614 16.82 19.9997H17C17.6893 19.9953 18.3658 19.8129 18.9639 19.4701C19.5619 19.1273 20.0613 18.6357 20.4134 18.0431C20.7655 17.4505 20.9586 16.777 20.9737 16.0878C20.9889 15.3986 20.8257 14.7172 20.5 14.1097C20.9664 13.7362 21.3433 13.2631 21.6028 12.7249C21.8624 12.1867 21.9981 11.5972 22 10.9997ZM11 8.54969C10.7822 8.42512 10.5548 8.31811 10.32 8.22969C10.068 8.14482 9.79268 8.16352 9.55451 8.28166C9.31634 8.39981 9.13485 8.60773 9.04998 8.85969C8.96512 9.11164 8.98381 9.38699 9.10196 9.62517C9.22011 9.86334 9.42803 10.0448 9.67998 10.1297C10.0649 10.2689 10.3979 10.5228 10.634 10.8572C10.87 11.1916 10.9978 11.5904 11 11.9997V13.5497C10.7822 13.4251 10.5548 13.3181 10.32 13.2297C10.068 13.1448 9.79268 13.1635 9.55451 13.2817C9.31634 13.3998 9.13485 13.6077 9.04998 13.8597C8.96512 14.1116 8.98381 14.387 9.10196 14.6252C9.22011 14.8633 9.42803 15.0448 9.67998 15.1297C10.0649 15.2689 10.3979 15.5228 10.634 15.8572C10.87 16.1916 10.9978 16.5904 11 16.9997V18.9997C11 19.2649 10.8946 19.5193 10.7071 19.7068C10.5196 19.8943 10.2652 19.9997 9.99998 19.9997C9.80652 19.9984 9.61757 19.9411 9.45605 19.8346C9.29453 19.7281 9.16737 19.577 9.08998 19.3997C9.25766 19.3013 9.41807 19.191 9.56998 19.0697C9.6711 18.9856 9.75468 18.8825 9.81593 18.7662C9.87719 18.6498 9.91493 18.5225 9.92701 18.3916C9.93908 18.2607 9.92524 18.1287 9.88629 18.0031C9.84734 17.8775 9.78403 17.7608 9.69998 17.6597C9.61594 17.5586 9.5128 17.475 9.39645 17.4137C9.28011 17.3525 9.15284 17.3147 9.02191 17.3027C8.89098 17.2906 8.75895 17.3044 8.63337 17.3434C8.50778 17.3823 8.3911 17.4456 8.28998 17.5297C7.92891 17.8337 7.47197 18.0001 6.99998 17.9997C6.46955 17.9997 5.96084 17.789 5.58577 17.4139C5.2107 17.0388 4.99998 16.5301 4.99998 15.9997C5.00477 15.6233 5.11569 15.2559 5.31998 14.9397C5.54441 14.9799 5.77198 15 5.99998 14.9997C6.2652 14.9997 6.51955 14.8943 6.70709 14.7068C6.89463 14.5193 6.99998 14.2649 6.99998 13.9997C6.99998 13.7345 6.89463 13.4801 6.70709 13.2926C6.51955 13.105 6.2652 12.9997 5.99998 12.9997C5.76377 13.001 5.52951 12.9569 5.30998 12.8697C4.95033 12.74 4.63539 12.5099 4.40247 12.2067C4.16956 11.9035 4.02843 11.5399 3.99581 11.159C3.96319 10.778 4.04044 10.3957 4.21841 10.0573C4.39639 9.71894 4.66762 9.43866 4.99998 9.24969C5.14208 9.38043 5.29609 9.4976 5.45998 9.59969C5.69072 9.7323 5.96469 9.76781 6.22161 9.69842C6.47854 9.62904 6.69738 9.46043 6.82998 9.22969C6.96259 8.99895 6.99811 8.72498 6.92872 8.46806C6.85933 8.21113 6.69072 7.9923 6.45998 7.85969C6.31921 7.78203 6.20181 7.66808 6.11998 7.52969C6.02753 7.36913 5.98571 7.18441 5.99998 6.99969C5.99998 6.73447 6.10534 6.48012 6.29288 6.29258C6.48041 6.10505 6.73477 5.99969 6.99998 5.99969C7.06965 5.98997 7.14032 5.98997 7.20998 5.99969C7.26292 6.16036 7.32639 6.31737 7.39998 6.46969C7.46531 6.58428 7.55267 6.68481 7.65702 6.76549C7.76136 6.84618 7.88064 6.90542 8.00798 6.93981C8.13532 6.9742 8.26821 6.98306 8.39899 6.96588C8.52976 6.94869 8.65585 6.90581 8.76998 6.83969C8.99169 6.7063 9.15306 6.49216 9.22019 6.24228C9.28733 5.9924 9.25499 5.72623 9.12998 5.49969C9.04608 5.34629 9.00142 5.17453 8.99998 4.99969C8.99998 4.73447 9.10534 4.48012 9.29288 4.29258C9.48041 4.10505 9.73477 3.99969 9.99998 3.99969C10.2652 3.99969 10.5196 4.10505 10.7071 4.29258C10.8946 4.48012 11 4.73447 11 4.99969V8.54969ZM18.69 12.8697C18.4705 12.9569 18.2362 13.001 18 12.9997C17.7348 12.9997 17.4804 13.105 17.2929 13.2926C17.1053 13.4801 17 13.7345 17 13.9997C17 14.2649 17.1053 14.5193 17.2929 14.7068C17.4804 14.8943 17.7348 14.9997 18 14.9997C18.228 15 18.4556 14.9799 18.68 14.9397C18.8843 15.2559 18.9952 15.6233 19 15.9997C19 16.5301 18.7893 17.0388 18.4142 17.4139C18.0391 17.789 17.5304 17.9997 17 17.9997C16.528 18.0001 16.0711 17.8337 15.71 17.5297C15.5058 17.36 15.2425 17.2783 14.9781 17.3027C14.7136 17.327 14.4697 17.4555 14.3 17.6597C14.1302 17.8639 14.0486 18.1272 14.073 18.3916C14.0973 18.656 14.2258 18.9 14.43 19.0697C14.5819 19.191 14.7423 19.3013 14.91 19.3997C14.8326 19.577 14.7054 19.7281 14.5439 19.8346C14.3824 19.9411 14.1935 19.9984 14 19.9997C13.7348 19.9997 13.4804 19.8943 13.2929 19.7068C13.1053 19.5193 13 19.2649 13 18.9997V16.9997C13.0022 16.5904 13.13 16.1916 13.366 15.8572C13.6021 15.5228 13.935 15.2689 14.32 15.1297C14.5719 15.0448 14.7799 14.8633 14.898 14.6252C15.0162 14.387 15.0349 14.1116 14.95 13.8597C14.8651 13.6077 14.6836 13.3998 14.4455 13.2817C14.2073 13.1635 13.9319 13.1448 13.68 13.2297C13.4452 13.3181 13.2178 13.4251 13 13.5497V11.9997C13.0022 11.5904 13.13 11.1916 13.366 10.8572C13.6021 10.5228 13.935 10.2689 14.32 10.1297C14.5719 10.0448 14.7799 9.86334 14.898 9.62517C15.0162 9.38699 15.0349 9.11164 14.95 8.85969C14.8651 8.60773 14.6836 8.39981 14.4455 8.28166C14.2073 8.16352 13.9319 8.14482 13.68 8.22969C13.4452 8.31811 13.2178 8.42512 13 8.54969V4.99969C13 4.73447 13.1053 4.48012 13.2929 4.29258C13.4804 4.10505 13.7348 3.99969 14 3.99969C14.2652 3.99969 14.5196 4.10505 14.7071 4.29258C14.8946 4.48012 15 4.73447 15 4.99969C14.9986 5.17453 14.9539 5.34629 14.87 5.49969C14.8035 5.61323 14.76 5.73878 14.7421 5.86915C14.7242 5.99952 14.7322 6.13214 14.7656 6.25942C14.799 6.38669 14.8573 6.50611 14.937 6.61084C15.0167 6.71556 15.1162 6.80353 15.23 6.86969C15.3441 6.93581 15.4702 6.97869 15.601 6.99588C15.7318 7.01306 15.8646 7.0042 15.992 6.96981C16.1193 6.93542 16.2386 6.87618 16.343 6.79549C16.4473 6.71481 16.5347 6.61428 16.6 6.49969C16.6748 6.33763 16.7383 6.17056 16.79 5.99969C16.8596 5.98997 16.9303 5.98997 17 5.99969C17.2652 5.99969 17.5196 6.10505 17.7071 6.29258C17.8946 6.48012 18 6.73447 18 6.99969C17.9985 7.19572 17.9393 7.38698 17.83 7.54969C17.7482 7.67946 17.6346 7.78617 17.5 7.85969C17.2692 7.9923 17.1006 8.21113 17.0312 8.46806C16.9619 8.72498 16.9974 8.99895 17.13 9.22969C17.2626 9.46043 17.4814 9.62904 17.7384 9.69842C17.9953 9.76781 18.2692 9.7323 18.5 9.59969C18.6795 9.50259 18.8473 9.38515 19 9.24969C19.3335 9.43532 19.6069 9.71251 19.7879 10.0485C19.969 10.3845 20.0501 10.7653 20.0217 11.146C19.9933 11.5266 19.8566 11.8911 19.6277 12.1966C19.3988 12.502 19.0873 12.7356 18.73 12.8697H18.69Z" fill="#6C749D"/>
</svg>
