<svg width="24" height="24" viewBox="0 0 24 24" fill="none" xmlns="http://www.w3.org/2000/svg">
<path d="M19.89 9.55029C19.8069 9.38537 19.6797 9.24669 19.5226 9.14961C19.3656 9.05253 19.1847 9.00085 19 9.00029H14V3.00029C14.0107 2.78097 13.949 2.56422 13.8243 2.38349C13.6996 2.20276 13.5188 2.06809 13.31 2.00029C13.1092 1.93423 12.8927 1.93349 12.6914 1.99817C12.4902 2.06285 12.3147 2.18962 12.19 2.36029L4.18998 13.3603C4.08975 13.5052 4.02956 13.6739 4.01551 13.8495C4.00147 14.0251 4.03406 14.2013 4.10998 14.3603C4.17991 14.542 4.30137 14.6994 4.45947 14.8131C4.61757 14.9268 4.80543 14.9919 4.99998 15.0003H9.99998V21.0003C10.0001 21.2112 10.067 21.4166 10.1909 21.5872C10.3148 21.7578 10.4895 21.8849 10.69 21.9503C10.7905 21.9814 10.8948 21.9983 11 22.0003C11.1578 22.0007 11.3134 21.9638 11.4542 21.8925C11.595 21.8212 11.7169 21.7177 11.81 21.5903L19.81 10.5903C19.9177 10.4411 19.9822 10.265 19.9963 10.0815C20.0104 9.89805 19.9736 9.71421 19.89 9.55029ZM12 17.9203V14.0003C12 13.7351 11.8946 13.4807 11.7071 13.2932C11.5196 13.1056 11.2652 13.0003 11 13.0003H6.99998L12 6.08029V10.0003C12 10.2655 12.1053 10.5199 12.2929 10.7074C12.4804 10.8949 12.7348 11.0003 13 11.0003H17L12 17.9203Z" fill="#A969A9"/>
</svg>
