<svg width="124" height="36" viewBox="0 0 124 36" fill="none" xmlns="http://www.w3.org/2000/svg">
<rect x="118" y="24.0996" width="6" height="6" fill="#97C680"/>
<path d="M8.84766 29.3955C7.46094 29.3955 6.19629 29.1172 5.05371 28.5605C3.9209 28.0039 3.01758 27.2178 2.34375 26.2021C1.67969 25.1768 1.34766 24.0293 1.34766 22.7598H3.7793C3.7793 24.0098 4.24805 25.0547 5.18555 25.8945C6.13281 26.7246 7.38281 27.1396 8.93555 27.1396C10.332 27.1396 11.4697 26.8223 12.3486 26.1875C13.2373 25.543 13.6816 24.6787 13.6816 23.5947C13.6816 22.8916 13.5498 22.291 13.2861 21.793C13.0225 21.2852 12.666 20.8848 12.2168 20.5918C11.7676 20.2988 11.25 20.0547 10.6641 19.8594C10.0879 19.6543 9.47754 19.4785 8.83301 19.332C8.19824 19.1758 7.55859 19.0146 6.91406 18.8486C6.26953 18.6729 5.6543 18.4482 5.06836 18.1748C4.49219 17.9014 3.97949 17.5645 3.53027 17.1641C3.08105 16.7637 2.72461 16.2314 2.46094 15.5674C2.19727 14.9033 2.06543 14.1221 2.06543 13.2236C2.06543 11.6611 2.67578 10.3379 3.89648 9.25391C5.11719 8.16016 6.74805 7.61328 8.78906 7.61328C9.61914 7.61328 10.4248 7.73047 11.2061 7.96484C11.9971 8.19922 12.7344 8.55078 13.418 9.01953C14.1016 9.48828 14.6484 10.1279 15.0586 10.9385C15.4785 11.749 15.6885 12.6719 15.6885 13.707H13.1982C13.1982 12.4961 12.8125 11.5488 12.041 10.8652C11.2695 10.1719 10.1758 9.8252 8.75977 9.8252C7.36328 9.8252 6.30371 10.1572 5.58105 10.8213C4.8584 11.4756 4.49707 12.2764 4.49707 13.2236C4.49707 13.8291 4.62891 14.3564 4.89258 14.8057C5.15625 15.2451 5.5127 15.5967 5.96191 15.8604C6.41113 16.1143 6.92871 16.3389 7.51465 16.5342C8.10059 16.7197 8.71094 16.8955 9.3457 17.0615C9.99023 17.2178 10.6348 17.3887 11.2793 17.5742C11.9238 17.75 12.5391 17.9941 13.125 18.3066C13.7109 18.6094 14.2285 18.9707 14.6777 19.3906C15.127 19.8105 15.4834 20.3672 15.7471 21.0605C16.0107 21.7441 16.1426 22.54 16.1426 23.4482C16.1426 25.1475 15.4834 26.5635 14.165 27.6963C12.8467 28.8291 11.0742 29.3955 8.84766 29.3955ZM22.332 29V6.5H24.7051V19.4346H27.4297L31.8535 13.3994H34.5781L29.4512 20.2988V20.4746L34.9736 29H32.1465L27.5322 21.5879H24.7051V29H22.332ZM43.4775 10.5869C42.9795 10.5869 42.5693 10.4209 42.2471 10.0889C41.9346 9.75684 41.7783 9.3418 41.7783 8.84375C41.7783 8.35547 41.9346 7.9502 42.2471 7.62793C42.5693 7.2959 42.9795 7.12988 43.4775 7.12988C43.9854 7.12988 44.4004 7.2959 44.7227 7.62793C45.0547 7.9502 45.2207 8.35547 45.2207 8.84375C45.2207 9.3418 45.0547 9.75684 44.7227 10.0889C44.4004 10.4209 43.9854 10.5869 43.4775 10.5869ZM42.3203 29V15.4062H39.376V13.3994H44.6787V29H42.3203ZM51.8643 29V26.9639H55.0137V8.53613H51.8643V6.5H57.3867V26.9639H60.5361V29H51.8643ZM65.5244 29V26.9639H68.6738V8.53613H65.5244V6.5H71.0469V26.9639H74.1963V29H65.5244ZM86.1572 29.3955C83.8037 29.3955 81.9287 28.6484 80.5322 27.1543C79.1357 25.6504 78.4375 23.6875 78.4375 21.2656C78.4375 20.0449 78.6377 18.917 79.0381 17.8818C79.4385 16.8369 79.9805 15.9629 80.6641 15.2598C81.3477 14.5566 82.1484 14.0049 83.0664 13.6045C83.9844 13.2041 84.9609 13.0039 85.9961 13.0039C88.3105 13.0039 90.1221 13.7412 91.4307 15.2158C92.749 16.6807 93.4082 18.6045 93.4082 20.9873V21.8662H80.8691C80.8789 23.5947 81.3574 24.9326 82.3047 25.8799C83.252 26.8174 84.5459 27.2861 86.1865 27.2861C87.3193 27.2861 88.3203 26.9834 89.1895 26.3779C90.0684 25.7627 90.6348 24.9277 90.8887 23.873L93.2031 24.415C92.7637 25.9092 91.9189 27.1152 90.6689 28.0332C89.4189 28.9414 87.915 29.3955 86.1572 29.3955ZM80.9277 19.9473H90.9766C90.9082 18.4043 90.4004 17.2178 89.4531 16.3877C88.5156 15.5576 87.3633 15.1426 85.9961 15.1426C84.6777 15.1426 83.5254 15.5869 82.5391 16.4756C81.5527 17.3643 81.0156 18.5215 80.9277 19.9473ZM97.0342 29L102.674 20.8701L97.459 13.3994H100.242L104.183 19.2734H104.358L108.284 13.3994H111.082L105.853 20.9873L111.492 29H108.709L104.358 22.6719H104.08L99.8027 29H97.0342Z" fill="#1E1E2F"/>
<path d="M5.05371 28.5605L4.6127 29.4581L4.61574 29.4595L5.05371 28.5605ZM2.34375 26.2021L1.50434 26.7458L1.51047 26.755L2.34375 26.2021ZM1.34766 22.7598V21.7598H0.347656V22.7598H1.34766ZM3.7793 22.7598H4.7793V21.7598H3.7793V22.7598ZM5.18555 25.8945L4.51826 26.6394L4.52649 26.6466L5.18555 25.8945ZM12.3486 26.1875L12.9341 26.9982L12.9357 26.997L12.3486 26.1875ZM13.2861 21.793L12.3986 22.2538L12.4023 22.2609L13.2861 21.793ZM10.6641 19.8594L10.3287 20.8015L10.3383 20.8049L10.3478 20.8081L10.6641 19.8594ZM8.83301 19.332L8.59399 20.303L8.60267 20.3052L8.61139 20.3072L8.83301 19.332ZM6.91406 18.8486L6.65095 19.8134L6.65777 19.8153L6.66463 19.817L6.91406 18.8486ZM5.06836 18.1748L4.63961 19.0782L4.64547 19.081L5.06836 18.1748ZM3.53027 17.1641L2.8649 17.9106L3.53027 17.1641ZM3.89648 9.25391L4.56048 10.0017L4.5638 9.99868L3.89648 9.25391ZM11.2061 7.96484L10.9187 8.92268L10.922 8.92364L11.2061 7.96484ZM15.0586 10.9385L14.1663 11.39L14.1707 11.3985L15.0586 10.9385ZM15.6885 13.707V14.707H16.6885V13.707H15.6885ZM13.1982 13.707H12.1982V14.707H13.1982V13.707ZM12.041 10.8652L11.3726 11.609L11.3778 11.6137L12.041 10.8652ZM5.58105 10.8213L6.25225 11.5626L6.25768 11.5576L5.58105 10.8213ZM4.89258 14.8057L4.03012 15.3119L4.03509 15.3202L4.89258 14.8057ZM5.96191 15.8604L5.45571 16.7228L5.46275 16.7269L5.46986 16.7309L5.96191 15.8604ZM7.51465 16.5342L7.19842 17.4829L7.20557 17.4852L7.21276 17.4875L7.51465 16.5342ZM9.3457 17.0615L9.09268 18.029L9.10137 18.0313L9.1101 18.0334L9.3457 17.0615ZM11.2793 17.5742L11.0026 18.5353L11.0162 18.539L11.2793 17.5742ZM13.125 18.3066L12.6544 19.1891L12.666 19.1951L13.125 18.3066ZM14.6777 19.3906L13.9949 20.1212L14.6777 19.3906ZM15.7471 21.0605L14.8124 21.416L14.8141 21.4204L15.7471 21.0605ZM14.165 27.6963L13.5133 26.9378L14.165 27.6963ZM8.84766 28.3955C7.59866 28.3955 6.48574 28.1458 5.49168 27.6616L4.61574 29.4595C5.90684 30.0885 7.32322 30.3955 8.84766 30.3955V28.3955ZM5.49472 27.663C4.51497 27.1816 3.74936 26.5119 3.17703 25.6493L1.51047 26.755C2.2858 27.9236 3.32682 28.8262 4.6127 29.458L5.49472 27.663ZM3.18311 25.6586C2.62815 24.8016 2.34766 23.8444 2.34766 22.7598H0.347656C0.347656 24.2142 0.731225 25.5519 1.50439 26.7457L3.18311 25.6586ZM1.34766 23.7598H3.7793V21.7598H1.34766V23.7598ZM2.7793 22.7598C2.7793 24.2963 3.37073 25.6113 4.5183 26.6394L5.8528 25.1497C5.12536 24.498 4.7793 23.7232 4.7793 22.7598H2.7793ZM4.52649 26.6466C5.69592 27.6714 7.19908 28.1396 8.93555 28.1396V26.1396C7.56655 26.1396 6.5697 25.7778 5.8446 25.1424L4.52649 26.6466ZM8.93555 28.1396C10.4817 28.1396 11.8415 27.7873 12.9341 26.9982L11.7631 25.3768C11.098 25.8572 10.1824 26.1396 8.93555 26.1396V28.1396ZM12.9357 26.997C14.0799 26.1672 14.6816 25.0039 14.6816 23.5947H12.6816C12.6816 24.3535 12.3948 24.9187 11.7615 25.378L12.9357 26.997ZM14.6816 23.5947C14.6816 22.7682 14.5265 21.9987 14.1699 21.3251L12.4023 22.2609C12.5731 22.5834 12.6816 23.015 12.6816 23.5947H14.6816ZM14.1736 21.3322C13.8361 20.682 13.3662 20.1476 12.7631 19.7542L11.6705 21.4294C11.9658 21.622 12.2089 21.8883 12.3986 22.2538L14.1736 21.3322ZM12.7631 19.7542C12.2324 19.4081 11.6354 19.129 10.9803 18.9107L10.3478 20.8081C10.8646 20.9803 11.3028 21.1896 11.6705 21.4294L12.7631 19.7542ZM10.9994 18.9173C10.3832 18.6979 9.73462 18.5114 9.05463 18.3569L8.61139 20.3072C9.22045 20.4456 9.79262 20.6107 10.3287 20.8015L10.9994 18.9173ZM9.07203 18.361C8.4408 18.2056 7.80462 18.0454 7.1635 17.8802L6.66463 19.817C7.31256 19.9839 7.95568 20.1459 8.59399 20.303L9.07203 18.361ZM7.17718 17.8839C6.58566 17.7225 6.02401 17.5172 5.49124 17.2686L4.64547 19.081C5.28458 19.3792 5.95341 19.6232 6.65095 19.8134L7.17718 17.8839ZM5.4971 17.2714C5.00173 17.0363 4.56972 16.751 4.19564 16.4175L2.8649 17.9106C3.38926 18.3779 3.98265 18.7665 4.63961 19.0782L5.4971 17.2714ZM4.19564 16.4175C3.88246 16.1384 3.60727 15.7447 3.39035 15.1983L1.53152 15.9364C1.84194 16.7182 2.27965 17.3889 2.8649 17.9106L4.19564 16.4175ZM3.39035 15.1983C3.18362 14.6777 3.06543 14.027 3.06543 13.2236H1.06543C1.06543 14.2171 1.21091 15.129 1.53152 15.9364L3.39035 15.1983ZM3.06543 13.2236C3.06543 11.9612 3.5426 10.9055 4.56048 10.0016L3.23249 8.50617C1.80896 9.77026 1.06543 11.3611 1.06543 13.2236H3.06543ZM4.5638 9.99868C5.55913 9.10687 6.93148 8.61328 8.78906 8.61328V6.61328C6.56461 6.61328 4.67525 7.21344 3.22917 8.50913L4.5638 9.99868ZM8.78906 8.61328C9.52356 8.61328 10.2323 8.71676 10.9187 8.92267L11.4934 7.00702C10.6173 6.74418 9.71472 6.61328 8.78906 6.61328V8.61328ZM10.922 8.92364C11.6123 9.12817 12.2547 9.43436 12.8524 9.84426L13.9835 8.1948C13.2141 7.66721 12.3819 7.27026 11.4901 7.00605L10.922 8.92364ZM12.8524 9.84426C13.3845 10.2091 13.8246 10.7146 14.1663 11.39L15.9509 10.487C15.4723 9.54127 14.8186 8.76746 13.9835 8.1948L12.8524 9.84426ZM14.1707 11.3985C14.5076 12.0488 14.6885 12.8103 14.6885 13.707H16.6885C16.6885 12.5334 16.4494 11.4492 15.9465 10.4785L14.1707 11.3985ZM15.6885 12.707H13.1982V14.707H15.6885V12.707ZM14.1982 13.707C14.1982 12.2649 13.7278 11.0238 12.7042 10.1168L11.3778 11.6137C11.8972 12.0738 12.1982 12.7273 12.1982 13.707H14.1982ZM12.7095 10.1215C11.6965 9.2111 10.3317 8.8252 8.75977 8.8252V10.8252C10.0198 10.8252 10.8426 11.1326 11.3726 11.609L12.7095 10.1215ZM8.75977 8.8252C7.21824 8.8252 5.87689 9.19135 4.90443 10.085L6.25768 11.5576C6.73053 11.1231 7.50832 10.8252 8.75977 10.8252V8.8252ZM4.90988 10.08C3.98478 10.9176 3.49707 11.9847 3.49707 13.2236H5.49707C5.49707 12.568 5.73202 12.0336 6.25223 11.5626L4.90988 10.08ZM3.49707 13.2236C3.49707 13.9778 3.66266 14.6858 4.03016 15.3119L5.75499 14.2995C5.59515 14.0271 5.49707 13.6804 5.49707 13.2236H3.49707ZM4.03509 15.3202C4.38635 15.9056 4.86459 16.3758 5.45571 16.7228L6.46811 14.9979C6.1608 14.8176 5.92615 14.5846 5.75007 14.2912L4.03509 15.3202ZM5.46986 16.7309C5.98469 17.0219 6.563 17.2711 7.19842 17.4829L7.83088 15.5855C7.29442 15.4067 6.83758 15.2066 6.45397 14.9898L5.46986 16.7309ZM7.21276 17.4875C7.8159 17.6785 8.44259 17.859 9.09268 18.029L9.59873 16.0941C8.97928 15.9321 8.38527 15.7609 7.81654 15.5808L7.21276 17.4875ZM9.1101 18.0334C9.74072 18.1863 10.3716 18.3535 11.0027 18.5352L11.5559 16.6132C10.898 16.4238 10.2397 16.2493 9.5813 16.0897L9.1101 18.0334ZM11.0162 18.539C11.5891 18.6952 12.1347 18.9118 12.6544 19.189L13.5956 17.4243C12.9434 17.0764 12.2585 16.8048 11.5424 16.6095L11.0162 18.539ZM12.666 19.1951C13.1763 19.4587 13.6173 19.7683 13.9949 20.1212L15.3606 18.6601C14.8397 18.1732 14.2456 17.76 13.584 17.4182L12.666 19.1951ZM13.9949 20.1212C14.312 20.4176 14.5919 20.8362 14.8124 21.416L16.6818 20.7051C16.3749 19.8982 15.9419 19.2035 15.3606 18.6601L13.9949 20.1212ZM14.8141 21.4204C15.0243 21.9654 15.1426 22.6346 15.1426 23.4482H17.1426C17.1426 22.4454 16.9972 21.5229 16.6801 20.7007L14.8141 21.4204ZM15.1426 23.4482C15.1426 24.8484 14.6164 25.99 13.5133 26.9378L14.8168 28.4548C16.3504 27.137 17.1426 25.4466 17.1426 23.4482H15.1426ZM13.5133 26.9378C12.4225 27.8751 10.9039 28.3955 8.84766 28.3955V30.3955C11.2445 30.3955 13.2709 29.7831 14.8168 28.4548L13.5133 26.9378ZM22.332 29H21.332V30H22.332V29ZM22.332 6.5V5.5H21.332V6.5H22.332ZM24.7051 6.5H25.7051V5.5H24.7051V6.5ZM24.7051 19.4346H23.7051V20.4346H24.7051V19.4346ZM27.4297 19.4346V20.4346H27.9366L28.2362 20.0258L27.4297 19.4346ZM31.8535 13.3994V12.3994H31.3466L31.047 12.8082L31.8535 13.3994ZM34.5781 13.3994L35.3808 13.9959L36.5671 12.3994H34.5781V13.3994ZM29.4512 20.2988L28.6485 19.7024L28.4512 19.968V20.2988H29.4512ZM29.4512 20.4746H28.4512V20.7702L28.6119 21.0183L29.4512 20.4746ZM34.9736 29V30H36.8129L35.8129 28.4563L34.9736 29ZM32.1465 29L31.2975 29.5285L31.5911 30H32.1465V29ZM27.5322 21.5879L28.3812 21.0594L28.0876 20.5879H27.5322V21.5879ZM24.7051 21.5879V20.5879H23.7051V21.5879H24.7051ZM24.7051 29V30H25.7051V29H24.7051ZM23.332 29V6.5H21.332V29H23.332ZM22.332 7.5H24.7051V5.5H22.332V7.5ZM23.7051 6.5V19.4346H25.7051V6.5H23.7051ZM24.7051 20.4346H27.4297V18.4346H24.7051V20.4346ZM28.2362 20.0258L32.66 13.9906L31.047 12.8082L26.6232 18.8434L28.2362 20.0258ZM31.8535 14.3994H34.5781V12.3994H31.8535V14.3994ZM33.7755 12.803L28.6485 19.7024L30.2538 20.8953L35.3808 13.9959L33.7755 12.803ZM28.4512 20.2988V20.4746H30.4512V20.2988H28.4512ZM28.6119 21.0183L34.1343 29.5437L35.8129 28.4563L30.2905 19.9309L28.6119 21.0183ZM34.9736 28H32.1465V30H34.9736V28ZM32.9954 28.4715L28.3812 21.0594L26.6833 22.1164L31.2975 29.5285L32.9954 28.4715ZM27.5322 20.5879H24.7051V22.5879H27.5322V20.5879ZM23.7051 21.5879V29H25.7051V21.5879H23.7051ZM24.7051 28H22.332V30H24.7051V28ZM42.2471 10.0889L41.5189 10.7742L41.5241 10.7798L41.5295 10.7853L42.2471 10.0889ZM42.2471 7.62793L41.5295 6.93145L41.5292 6.93178L42.2471 7.62793ZM44.7227 7.62793L44.0051 8.32441L44.0155 8.33512L44.0262 8.34551L44.7227 7.62793ZM44.7227 10.0889L44.0155 9.38176L44.0103 9.38704L44.0051 9.39239L44.7227 10.0889ZM42.3203 29H41.3203V30H42.3203V29ZM42.3203 15.4062H43.3203V14.4062H42.3203V15.4062ZM39.376 15.4062H38.376V16.4062H39.376V15.4062ZM39.376 13.3994V12.3994H38.376V13.3994H39.376ZM44.6787 13.3994H45.6787V12.3994H44.6787V13.3994ZM44.6787 29V30H45.6787V29H44.6787ZM43.4775 9.58691C43.2269 9.58691 43.0832 9.51453 42.9647 9.39239L41.5295 10.7853C42.0555 11.3273 42.732 11.5869 43.4775 11.5869V9.58691ZM42.9753 9.4035C42.8542 9.27484 42.7783 9.11271 42.7783 8.84375H40.7783C40.7783 9.57089 41.015 10.2388 41.5189 10.7742L42.9753 9.4035ZM42.7783 8.84375C42.7783 8.59035 42.8501 8.44255 42.965 8.32408L41.5292 6.93178C41.0191 7.45784 40.7783 8.12059 40.7783 8.84375H42.7783ZM42.9647 8.32441C43.0832 8.20226 43.2269 8.12988 43.4775 8.12988V6.12988C42.732 6.12988 42.0555 6.38953 41.5295 6.93145L42.9647 8.32441ZM43.4775 8.12988C43.7441 8.12988 43.8905 8.20634 44.0051 8.32441L45.4402 6.93145C44.9103 6.38545 44.2266 6.12988 43.4775 6.12988V8.12988ZM44.0262 8.34551C44.1525 8.46814 44.2207 8.60917 44.2207 8.84375H46.2207C46.2207 8.10176 45.9568 7.43225 45.4191 6.91035L44.0262 8.34551ZM44.2207 8.84375C44.2207 9.09444 44.1478 9.24952 44.0155 9.38176L45.4298 10.796C45.9616 10.2641 46.2207 9.58916 46.2207 8.84375H44.2207ZM44.0051 9.39239C43.8905 9.51045 43.7441 9.58691 43.4775 9.58691V11.5869C44.2266 11.5869 44.9103 11.3313 45.4402 10.7853L44.0051 9.39239ZM43.3203 29V15.4062H41.3203V29H43.3203ZM42.3203 14.4062H39.376V16.4062H42.3203V14.4062ZM40.376 15.4062V13.3994H38.376V15.4062H40.376ZM39.376 14.3994H44.6787V12.3994H39.376V14.3994ZM43.6787 13.3994V29H45.6787V13.3994H43.6787ZM44.6787 28H42.3203V30H44.6787V28ZM51.8643 29H50.8643V30H51.8643V29ZM51.8643 26.9639V25.9639H50.8643V26.9639H51.8643ZM55.0137 26.9639V27.9639H56.0137V26.9639H55.0137ZM55.0137 8.53613H56.0137V7.53613H55.0137V8.53613ZM51.8643 8.53613H50.8643V9.53613H51.8643V8.53613ZM51.8643 6.5V5.5H50.8643V6.5H51.8643ZM57.3867 6.5H58.3867V5.5H57.3867V6.5ZM57.3867 26.9639H56.3867V27.9639H57.3867V26.9639ZM60.5361 26.9639H61.5361V25.9639H60.5361V26.9639ZM60.5361 29V30H61.5361V29H60.5361ZM52.8643 29V26.9639H50.8643V29H52.8643ZM51.8643 27.9639H55.0137V25.9639H51.8643V27.9639ZM56.0137 26.9639V8.53613H54.0137V26.9639H56.0137ZM55.0137 7.53613H51.8643V9.53613H55.0137V7.53613ZM52.8643 8.53613V6.5H50.8643V8.53613H52.8643ZM51.8643 7.5H57.3867V5.5H51.8643V7.5ZM56.3867 6.5V26.9639H58.3867V6.5H56.3867ZM57.3867 27.9639H60.5361V25.9639H57.3867V27.9639ZM59.5361 26.9639V29H61.5361V26.9639H59.5361ZM60.5361 28H51.8643V30H60.5361V28ZM65.5244 29H64.5244V30H65.5244V29ZM65.5244 26.9639V25.9639H64.5244V26.9639H65.5244ZM68.6738 26.9639V27.9639H69.6738V26.9639H68.6738ZM68.6738 8.53613H69.6738V7.53613H68.6738V8.53613ZM65.5244 8.53613H64.5244V9.53613H65.5244V8.53613ZM65.5244 6.5V5.5H64.5244V6.5H65.5244ZM71.0469 6.5H72.0469V5.5H71.0469V6.5ZM71.0469 26.9639H70.0469V27.9639H71.0469V26.9639ZM74.1963 26.9639H75.1963V25.9639H74.1963V26.9639ZM74.1963 29V30H75.1963V29H74.1963ZM66.5244 29V26.9639H64.5244V29H66.5244ZM65.5244 27.9639H68.6738V25.9639H65.5244V27.9639ZM69.6738 26.9639V8.53613H67.6738V26.9639H69.6738ZM68.6738 7.53613H65.5244V9.53613H68.6738V7.53613ZM66.5244 8.53613V6.5H64.5244V8.53613H66.5244ZM65.5244 7.5H71.0469V5.5H65.5244V7.5ZM70.0469 6.5V26.9639H72.0469V6.5H70.0469ZM71.0469 27.9639H74.1963V25.9639H71.0469V27.9639ZM73.1963 26.9639V29H75.1963V26.9639H73.1963ZM74.1963 28H65.5244V30H74.1963V28ZM80.5322 27.1543L79.7994 27.8348L79.8016 27.8371L80.5322 27.1543ZM79.0381 17.8818L79.9708 18.2426L79.9719 18.2396L79.0381 17.8818ZM83.0664 13.6045L82.6666 12.6879L83.0664 13.6045ZM91.4307 15.2158L90.6827 15.8796L90.6874 15.8848L91.4307 15.2158ZM93.4082 21.8662V22.8662H94.4082V21.8662H93.4082ZM80.8691 21.8662V20.8662H79.8635L79.8692 21.8719L80.8691 21.8662ZM82.3047 25.8799L81.5976 26.587L81.6013 26.5906L82.3047 25.8799ZM89.1895 26.3779L89.7611 27.1985L89.7629 27.1972L89.1895 26.3779ZM90.8887 23.873L91.1167 22.8994L90.1491 22.6728L89.9164 23.639L90.8887 23.873ZM93.2031 24.415L94.1625 24.6972L94.4609 23.6825L93.4311 23.4414L93.2031 24.415ZM90.6689 28.0332L91.2567 28.8422L91.2609 28.8392L90.6689 28.0332ZM80.9277 19.9473L79.9296 19.8857L79.8642 20.9473H80.9277V19.9473ZM90.9766 19.9473V20.9473H92.0218L91.9756 19.903L90.9766 19.9473ZM89.4531 16.3877L88.7902 17.1364L88.7941 17.1398L89.4531 16.3877ZM86.1572 28.3955C84.0349 28.3955 82.4411 27.7321 81.2628 26.4715L79.8016 27.8371C81.4164 29.5648 83.5725 30.3955 86.1572 30.3955V28.3955ZM81.265 26.4738C80.0706 25.1875 79.4375 23.4834 79.4375 21.2656H77.4375C77.4375 23.8916 78.2009 26.1132 79.7994 27.8347L81.265 26.4738ZM79.4375 21.2656C79.4375 20.156 79.6191 19.1517 79.9707 18.2426L78.1054 17.5211C77.6563 18.6823 77.4375 19.9339 77.4375 21.2656H79.4375ZM79.9719 18.2396C80.3306 17.3036 80.8044 16.55 81.3811 15.9568L79.9471 14.5627C79.1565 15.3758 78.5464 16.3703 78.1043 17.524L79.9719 18.2396ZM81.3811 15.9568C81.9722 15.3488 82.6646 14.8707 83.4662 14.5211L82.6666 12.6879C81.6323 13.139 80.7231 13.7645 79.9471 14.5627L81.3811 15.9568ZM83.4662 14.5211C84.2538 14.1776 85.0938 14.0039 85.9961 14.0039V12.0039C84.8281 12.0039 83.715 12.2306 82.6666 12.6879L83.4662 14.5211ZM85.9961 14.0039C88.0793 14.0039 89.5974 14.6566 90.6827 15.8796L92.1786 14.5521C90.6468 12.8259 88.5418 12.0039 85.9961 12.0039V14.0039ZM90.6874 15.8848C91.8074 17.1293 92.4082 18.7972 92.4082 20.9873H94.4082C94.4082 18.4117 93.6906 16.232 92.174 14.5469L90.6874 15.8848ZM92.4082 20.9873V21.8662H94.4082V20.9873H92.4082ZM93.4082 20.8662H80.8691V22.8662H93.4082V20.8662ZM79.8692 21.8719C79.88 23.7839 80.4145 25.4039 81.5976 26.587L83.0118 25.1728C82.3003 24.4613 81.8779 23.4055 81.8691 21.8606L79.8692 21.8719ZM81.6013 26.5906C82.7771 27.7543 84.347 28.2861 86.1865 28.2861V26.2861C84.7448 26.2861 83.7268 25.8804 83.0081 25.1691L81.6013 26.5906ZM86.1865 28.2861C87.5088 28.2861 88.7123 27.929 89.7611 27.1985L88.6178 25.5574C87.9283 26.0378 87.1299 26.2861 86.1865 26.2861V28.2861ZM89.7629 27.1972C90.8441 26.4403 91.5506 25.396 91.8609 24.1071L89.9164 23.639C89.7189 24.4594 89.2926 25.0851 88.616 25.5587L89.7629 27.1972ZM90.6607 24.8467L92.9751 25.3887L93.4311 23.4414L91.1167 22.8994L90.6607 24.8467ZM92.2438 24.1329C91.8658 25.4178 91.1497 26.4395 90.077 27.2272L91.2609 28.8392C92.6882 27.791 93.6615 26.4005 94.1625 24.6972L92.2438 24.1329ZM90.0811 27.2242C89.025 27.9916 87.7341 28.3955 86.1572 28.3955V30.3955C88.0959 30.3955 89.8129 29.8912 91.2567 28.8422L90.0811 27.2242ZM80.9277 20.9473H90.9766V18.9473H80.9277V20.9473ZM91.9756 19.903C91.8981 18.1536 91.3094 16.6847 90.1122 15.6356L88.7941 17.1398C89.4914 17.7508 89.9183 18.655 89.9775 19.9915L91.9756 19.903ZM90.116 15.639C88.9783 14.6316 87.5833 14.1426 85.9961 14.1426V16.1426C87.1433 16.1426 88.053 16.4836 88.7902 17.1364L90.116 15.639ZM85.9961 14.1426C84.4286 14.1426 83.0383 14.6798 81.8697 15.7327L83.2084 17.2185C84.0125 16.494 84.9269 16.1426 85.9961 16.1426V14.1426ZM81.8697 15.7327C80.6731 16.8108 80.0323 18.2204 79.9296 19.8857L81.9258 20.0088C81.999 18.8225 82.4324 17.9177 83.2084 17.2185L81.8697 15.7327ZM97.0342 29L96.2125 28.43L95.1234 30H97.0342V29ZM102.674 20.8701L103.495 21.4401L103.892 20.8683L103.494 20.2977L102.674 20.8701ZM97.459 13.3994V12.3994H95.5414L96.639 13.9718L97.459 13.3994ZM100.242 13.3994L101.073 12.8423L100.776 12.3994H100.242V13.3994ZM104.183 19.2734L103.352 19.8305L103.649 20.2734H104.183V19.2734ZM104.358 19.2734V20.2734H104.893L105.19 19.8291L104.358 19.2734ZM108.284 13.3994V12.3994H107.75L107.453 12.8438L108.284 13.3994ZM111.082 13.3994L111.905 13.9669L112.986 12.3994H111.082V13.3994ZM105.853 20.9873L105.029 20.4198L104.634 20.9933L105.035 21.5629L105.853 20.9873ZM111.492 29V30H113.419L112.31 28.4244L111.492 29ZM108.709 29L107.885 29.5665L108.183 30H108.709V29ZM104.358 22.6719L105.182 22.1053L104.884 21.6719H104.358V22.6719ZM104.08 22.6719V21.6719H103.549L103.252 22.1119L104.08 22.6719ZM99.8027 29V30H100.334L100.631 29.56L99.8027 29ZM97.8558 29.57L103.495 21.4401L101.852 20.3001L96.2125 28.43L97.8558 29.57ZM103.494 20.2977L98.279 12.827L96.639 13.9718L101.854 21.4425L103.494 20.2977ZM97.459 14.3994H100.242V12.3994H97.459V14.3994ZM99.4117 13.9565L103.352 19.8305L105.013 18.7164L101.073 12.8423L99.4117 13.9565ZM104.183 20.2734H104.358V18.2734H104.183V20.2734ZM105.19 19.8291L109.116 13.9551L107.453 12.8438L103.527 18.7178L105.19 19.8291ZM108.284 14.3994H111.082V12.3994H108.284V14.3994ZM110.259 12.8319L105.029 20.4198L106.676 21.5548L111.905 13.9669L110.259 12.8319ZM105.035 21.5629L110.674 29.5756L112.31 28.4244L106.67 20.4117L105.035 21.5629ZM111.492 28H108.709V30H111.492V28ZM109.533 28.4335L105.182 22.1053L103.534 23.2384L107.885 29.5665L109.533 28.4335ZM104.358 21.6719H104.08V23.6719H104.358V21.6719ZM103.252 22.1119L98.9742 28.44L100.631 29.56L104.909 23.2319L103.252 22.1119ZM99.8027 28H97.0342V30H99.8027V28Z" fill="#1E1E2F"/>
<rect x="89" y="22.8496" width="6" height="2" fill="#FDFEFE"/>
</svg>
